<svg width="23" height="34" viewBox="0 0 23 34" fill="none" xmlns="http://www.w3.org/2000/svg">
<path d="M21.8601 30.3942L18.0269 24.1491C19.9002 22.0976 21.229 19.1955 21.5683 15.8478C22.3009 8.62068 18.2296 1.98754 12.4945 1.06437C6.75934 0.141211 1.49559 5.27172 0.763008 12.4989C0.0304292 19.726 4.10176 26.3591 9.83688 27.2823C11.8728 27.61 13.8357 27.1628 15.5515 26.1672L19.5362 32.6592C19.7744 33.0473 20.1278 33.2949 20.5003 33.3549C20.8726 33.4148 21.2642 33.2871 21.5721 32.9869C22.2409 32.3633 22.3582 31.2055 21.8601 30.3941L21.8601 30.3942ZM3.66776 12.9665C4.1942 7.7729 7.97728 4.05754 12.1234 4.72492C16.2694 5.3923 19.1651 10.1828 18.6386 15.3763C18.1122 20.5699 14.3291 24.2852 10.2079 23.6219C6.08662 22.9585 3.13816 18.1912 3.66776 12.9665Z" fill="black"/>
</svg>
